<svg width="512" height="512" viewBox="0 0 512 512" fill="none" xmlns="http://www.w3.org/2000/svg">
<g clip-path="url(#clip0_70_2)">
<path d="M375.777 375.914C378.284 377.853 380.651 379.874 383 382C383.77 382.677 384.539 383.354 385.332 384.051C394.905 392.972 401.335 404.473 405 417C405 418.32 405 419.64 405 421C406.162 420.993 407.324 420.987 408.521 420.98C419.483 420.919 430.444 420.874 441.406 420.845C447.041 420.829 452.676 420.808 458.311 420.774C463.751 420.741 469.191 420.723 474.631 420.715C476.704 420.71 478.778 420.699 480.851 420.683C483.76 420.661 486.668 420.658 489.576 420.66C490.43 420.649 491.284 420.638 492.164 420.627C498.089 420.657 503.127 421.469 507.742 425.535C512.359 431.761 512.87 436.271 512 444C510.355 448.071 508.188 450.264 504.483 452.561C500.042 454.396 496.353 454.44 491.598 454.433C490.671 454.443 489.743 454.453 488.788 454.463C485.736 454.493 482.685 454.503 479.633 454.512C477.511 454.529 475.39 454.547 473.269 454.566C467.696 454.614 462.123 454.644 456.55 454.67C450.859 454.7 445.168 454.746 439.477 454.791C428.318 454.877 417.159 454.945 406 455C405.73 455.824 405.46 456.648 405.181 457.498C404.825 458.579 404.468 459.66 404.1 460.773C403.571 462.381 403.571 462.381 403.032 464.021C396.499 482.886 382.336 496.832 365 506C354.16 510.759 344.653 512.199 332.938 512.25C331.19 512.281 331.19 512.281 329.408 512.313C318.424 512.362 308.636 510.409 298.875 505.313C298.198 504.966 297.522 504.619 296.824 504.262C290.967 501.165 285.898 497.469 281 493C280.392 492.483 279.783 491.966 279.156 491.434C268.837 482.076 263.059 469.052 259 456C259 455.34 259 454.68 259 454C257.728 454.004 256.457 454.008 255.146 454.011C224.956 454.098 194.766 454.164 164.576 454.204C160.86 454.209 157.144 454.215 153.427 454.22C152.688 454.221 151.948 454.222 151.186 454.223C139.208 454.24 127.23 454.272 115.252 454.309C102.961 454.346 90.67 454.368 78.3788 454.376C70.795 454.382 63.2115 454.399 55.6277 454.432C49.8116 454.455 43.9955 454.458 38.1793 454.453C35.7941 454.454 33.4088 454.462 31.0235 454.477C27.7677 454.497 24.5127 454.492 21.2568 454.481C20.3123 454.493 19.3677 454.504 18.3945 454.516C12.4007 454.462 8.92055 453.474 4 450C0.313671 446.219 -0.303614 443.119 -0.5 438C-0.316302 432.882 0.430034 429.86 4 426C8.3334 421.992 11.5355 420.882 17.3341 420.861C18.199 420.856 19.0638 420.851 19.9549 420.845C20.9004 420.844 21.846 420.843 22.8201 420.842C23.8281 420.837 24.8361 420.832 25.8746 420.827C29.2618 420.812 32.6489 420.803 36.0361 420.795C38.4603 420.785 40.8845 420.775 43.3087 420.765C48.5329 420.743 53.757 420.725 58.9811 420.709C66.5343 420.686 74.0875 420.658 81.6407 420.629C93.8952 420.581 106.15 420.538 118.404 420.497C130.309 420.458 142.213 420.417 154.117 420.372C154.851 420.37 155.585 420.367 156.341 420.364C160.022 420.351 163.703 420.337 167.384 420.323C197.922 420.209 228.461 420.102 259 420C259.271 419.176 259.541 418.351 259.82 417.501C260.177 416.42 260.534 415.339 260.902 414.225C261.255 413.153 261.608 412.081 261.972 410.976C268.344 392.536 281.851 379.252 298.75 370.188C323.82 358.406 352.824 360.095 375.777 375.914ZM305 406C304.093 406.752 304.093 406.752 303.168 407.52C295.057 414.782 290.727 425.245 290 436C289.869 449.144 294.633 459.372 303.656 468.715C312.11 476.551 323.137 480.57 334.617 480.25C346.25 479.03 357.182 473.756 365 465C373.004 453.419 375.293 442.793 374 429C371.745 417.822 364.251 408.457 355 402C338.475 393.141 319.504 393.006 305 406Z" fill="black"/>
<path d="M360 3.99999C361.15 4.47437 362.3 4.94874 363.484 5.43749C382.474 14.0618 394.987 28.9912 403 48C403.553 49.5781 404.09 51.1622 404.61 52.7517C404.873 53.5507 405.135 54.3496 405.406 55.1728C405.602 55.7758 405.798 56.3788 406 57C407.762 57.0055 407.762 57.0055 409.559 57.011C420.639 57.048 431.718 57.1058 442.797 57.1839C448.492 57.2234 454.188 57.2556 459.883 57.271C465.382 57.2862 470.88 57.3206 476.379 57.3683C478.474 57.3831 480.57 57.391 482.666 57.3919C485.606 57.3942 488.545 57.4213 491.485 57.4541C492.348 57.4491 493.211 57.444 494.1 57.4389C501.083 57.5589 505.458 59.3926 510.437 64.5C512.746 69.6706 512.758 74.4268 512 80C509.848 84.4628 507.095 87.2359 503 90C500.266 90.8591 497.807 91.1241 494.95 91.1202C494.154 91.1216 493.357 91.123 492.537 91.1244C491.672 91.1208 490.808 91.1172 489.917 91.1135C488.541 91.1137 488.541 91.1137 487.137 91.114C484.107 91.1133 481.077 91.1055 478.047 91.0976C475.945 91.0958 473.843 91.0944 471.741 91.0934C466.211 91.0895 460.681 91.0797 455.15 91.0687C449.507 91.0584 443.863 91.0539 438.219 91.0488C427.146 91.0381 416.073 91.021 405 91C404.854 92.0955 404.707 93.1909 404.557 94.3196C402.169 110.101 390.976 124.007 379 134C361.383 146.955 341.242 151.317 319.737 148.728C300.873 145.619 283.38 135.078 271.879 119.832C269.648 116.469 267.623 113.041 265.687 109.5C265.199 108.611 265.199 108.611 264.7 107.704C262.841 104.143 261.517 100.614 260.39 96.7559C260.127 95.863 259.865 94.9701 259.594 94.0502C259.398 93.3736 259.202 92.6971 259 92C257.108 91.9964 257.108 91.9964 255.178 91.9928C225.232 91.9354 195.286 91.8626 165.341 91.771C161.654 91.7597 157.968 91.7486 154.282 91.7375C153.548 91.7353 152.814 91.7331 152.058 91.7309C140.177 91.6955 128.297 91.6706 116.416 91.6496C104.224 91.6279 92.0324 91.5948 79.8407 91.5513C72.3184 91.5248 64.7962 91.5071 57.2738 91.5006C51.5046 91.4948 45.7356 91.4732 39.9664 91.4457C37.6006 91.4369 35.2346 91.4332 32.8687 91.435C29.6392 91.4366 26.4102 91.42 23.1808 91.3987C22.244 91.4036 21.3073 91.4084 20.3421 91.4134C14.2221 91.3469 9.03379 90.6733 4.25774 86.4648C-0.359485 80.2395 -0.869892 75.7295 -7.51019e-05 68C1.63779 63.9477 3.80762 61.755 7.47136 59.4349C12.1452 57.5343 16.1401 57.5931 21.1365 57.6392C22.1543 57.6367 23.1722 57.6341 24.2209 57.6315C27.6296 57.6265 31.038 57.643 34.4467 57.6594C36.8909 57.6603 39.3351 57.6598 41.7793 57.6581C47.0406 57.6574 52.3017 57.6659 57.5629 57.6828C65.1696 57.7072 72.7764 57.715 80.3832 57.7188C92.7253 57.7253 105.067 57.7453 117.41 57.7737C129.397 57.8012 141.385 57.8225 153.372 57.8352C154.112 57.836 154.851 57.8368 155.612 57.8376C159.321 57.8415 163.029 57.8453 166.738 57.849C197.492 57.8801 228.246 57.9332 259 58C259.199 57.2498 259.397 56.4997 259.602 55.7268C259.999 54.2466 259.999 54.2466 260.404 52.7366C260.664 51.7595 260.925 50.7825 261.193 49.7759C264.144 39.6251 269.989 30.7998 277 23C277.777 22.0835 277.777 22.0835 278.57 21.1484C297.803 -0.0176163 333.938 -7.22666 360 3.99999ZM299 48C296.956 50.871 295.419 53.7801 294 57C293.694 57.6342 293.389 58.2684 293.074 58.9219C288.665 69.0348 289.479 79.7584 293 90C297.612 100.286 305.258 108.243 315.445 113.027C326.27 117.149 337.712 117.846 348.512 113.254C359.106 107.915 367.61 100.235 372 89C372.356 88.1002 372.711 87.2005 373.078 86.2734C375.909 76.2218 374.984 64.1697 370 55C363.266 43.9304 354.308 35.9364 341.562 32.75C324.964 29.6006 310.31 35.8705 299 48Z" fill="black"/>
<path d="M224 195C238.275 206.621 250.098 221.338 253 240C254.917 239.995 254.917 239.995 256.872 239.989C287.2 239.902 317.529 239.836 347.857 239.796C351.59 239.791 355.322 239.786 359.055 239.78C359.798 239.779 360.541 239.778 361.306 239.777C373.34 239.76 385.373 239.728 397.407 239.691C409.753 239.654 422.1 239.632 434.446 239.624C442.065 239.618 449.684 239.601 457.303 239.568C463.145 239.545 468.986 239.542 474.827 239.548C477.224 239.547 479.621 239.539 482.018 239.523C485.288 239.503 488.556 239.508 491.825 239.519C492.777 239.507 493.728 239.496 494.708 239.484C500.322 239.535 503.554 240.238 508 244C511.628 247.819 512.31 250.883 512.5 256C512.31 261.117 511.628 264.181 508 268C502.684 272.498 498.472 272.562 491.825 272.481C490.293 272.486 490.293 272.486 488.729 272.491C485.306 272.498 481.884 272.476 478.461 272.454C476.007 272.453 473.553 272.454 471.099 272.456C465.817 272.457 460.534 272.445 455.252 272.423C447.614 272.39 439.977 272.38 432.339 272.375C419.947 272.366 407.555 272.34 395.163 272.302C383.127 272.265 371.091 272.237 359.055 272.22C358.312 272.219 357.57 272.218 356.806 272.217C353.082 272.211 349.359 272.206 345.635 272.201C314.757 272.16 283.878 272.089 253 272C252.875 272.603 252.751 273.205 252.622 273.826C252.367 275.024 252.367 275.024 252.106 276.246C251.94 277.034 251.774 277.823 251.603 278.635C250.658 282.34 249.065 285.617 247.312 289C246.957 289.694 246.602 290.389 246.236 291.104C243.367 296.572 240.168 301.423 236 306C234.985 307.135 234.985 307.135 233.949 308.293C221.079 321.941 202.795 330.231 184.09 331.203C161.864 331.621 142.658 324.701 126.344 309.367C117.388 300.322 111.008 290.019 107.404 277.77C107.139 276.875 106.875 275.98 106.602 275.058C106.403 274.379 106.205 273.7 106 273C104.811 272.996 103.621 272.993 102.396 272.989C91.1838 272.952 79.9721 272.894 68.7603 272.816C62.9963 272.777 57.2324 272.744 51.4683 272.729C45.9049 272.714 40.3419 272.679 34.7787 272.632C32.6569 272.617 30.5351 272.609 28.4132 272.608C25.4396 272.606 22.4671 272.579 19.4937 272.546C18.1795 272.553 18.1795 272.553 16.8388 272.561C11.4074 272.469 8.32113 271.589 4 268C0.371663 264.181 -0.310005 261.117 -0.5 256C-0.310005 250.883 0.371663 247.819 4 244C9.17036 239.706 13.0624 239.417 19.4937 239.454C20.4309 239.444 21.3681 239.433 22.3337 239.423C25.418 239.393 28.5016 239.392 31.5859 239.391C33.7297 239.376 35.8735 239.359 38.0172 239.341C43.6495 239.297 49.2816 239.277 54.9139 239.262C60.6654 239.242 66.4166 239.2 72.168 239.16C83.4453 239.085 94.7225 239.035 106 239C106.476 237.494 106.476 237.494 106.962 235.958C107.396 234.614 107.831 233.27 108.266 231.926C108.473 231.267 108.68 230.609 108.893 229.931C114.837 211.701 129.091 197.252 145.938 188.688C152.107 185.658 158.227 183.318 165 182C165.926 181.818 166.851 181.637 167.805 181.449C187.617 178.664 207.84 183.12 224 195ZM147.188 228.75C138.648 239.086 136.832 251.048 138 264C140.374 275.044 146.832 284.482 156 291C166.372 297.227 177.087 299.963 189.121 297.313C201.85 293.421 211.482 285.901 217.875 274.125C222.785 263.393 222.98 252.533 219.375 241.375C215.588 231.811 208.238 223.099 198.965 218.492C180.063 210.454 161.652 213.57 147.188 228.75Z" fill="black"/>
</g>
<defs>
<clipPath id="clip0_70_2">
<rect width="512" height="512" fill="white"/>
</clipPath>
</defs>
</svg>
